<svg width="207" height="237" viewBox="0 0 207 237" fill="none" xmlns="http://www.w3.org/2000/svg">
<rect y="57.8579" width="206.346" height="178.649" rx="10" fill="#F7F7F7"/>
<path d="M0 10C0 4.47716 4.47715 0 10 0H196.346C201.868 0 206.346 4.47715 206.346 10V169.513H0V10Z" fill="#006E8D"/>
<path d="M54.5781 207.769V193.224H64.0383V195.432H57.2131V199.381H63.5483V201.59H57.2131V205.56H64.0952V207.769H54.5781ZM75.2351 199.743L72.8913 199.999C72.825 199.762 72.709 199.54 72.5433 199.332C72.3823 199.123 72.1645 198.955 71.8899 198.827C71.6153 198.699 71.2791 198.636 70.8814 198.636C70.3464 198.636 69.8965 198.752 69.532 198.984C69.1721 199.216 68.9946 199.516 68.9993 199.886C68.9946 200.203 69.1106 200.461 69.3473 200.66C69.5888 200.859 69.9865 201.022 70.5405 201.15L72.4013 201.547C73.4335 201.77 74.2005 202.123 74.7024 202.606C75.209 203.089 75.4647 203.721 75.4695 204.502C75.4647 205.189 75.2635 205.795 74.8658 206.32C74.4728 206.841 73.9259 207.248 73.2251 207.542C72.5244 207.835 71.7195 207.982 70.8104 207.982C69.4751 207.982 68.4003 207.703 67.5859 207.144C66.7715 206.581 66.2862 205.797 66.13 204.793L68.6371 204.552C68.7507 205.044 68.9922 205.416 69.3615 205.667C69.7308 205.918 70.2114 206.043 70.8033 206.043C71.4141 206.043 71.9041 205.918 72.2734 205.667C72.6475 205.416 72.8345 205.106 72.8345 204.736C72.8345 204.424 72.7138 204.166 72.4723 203.962C72.2356 203.759 71.8662 203.602 71.3643 203.493L69.5035 203.103C68.4571 202.885 67.683 202.518 67.1811 202.002C66.6792 201.481 66.4306 200.823 66.4354 200.028C66.4306 199.355 66.6129 198.773 66.9822 198.28C67.3563 197.783 67.8748 197.4 68.5376 197.13C69.2053 196.855 69.9747 196.718 70.8459 196.718C72.1243 196.718 73.1304 196.99 73.8643 197.535C74.603 198.079 75.0599 198.815 75.2351 199.743ZM86.2116 199.743L83.8679 199.999C83.8016 199.762 83.6856 199.54 83.5199 199.332C83.3589 199.123 83.1411 198.955 82.8665 198.827C82.5919 198.699 82.2557 198.636 81.858 198.636C81.3229 198.636 80.8731 198.752 80.5085 198.984C80.1487 199.216 79.9711 199.516 79.9758 199.886C79.9711 200.203 80.0871 200.461 80.3239 200.66C80.5653 200.859 80.9631 201.022 81.517 201.15L83.3778 201.547C84.41 201.77 85.1771 202.123 85.679 202.606C86.1856 203.089 86.4413 203.721 86.446 204.502C86.4413 205.189 86.2401 205.795 85.8423 206.32C85.4493 206.841 84.9025 207.248 84.2017 207.542C83.5009 207.835 82.696 207.982 81.7869 207.982C80.4517 207.982 79.3769 207.703 78.5625 207.144C77.7481 206.581 77.2628 205.797 77.1065 204.793L79.6136 204.552C79.7273 205.044 79.9687 205.416 80.3381 205.667C80.7074 205.918 81.188 206.043 81.7798 206.043C82.3906 206.043 82.8807 205.918 83.25 205.667C83.6241 205.416 83.8111 205.106 83.8111 204.736C83.8111 204.424 83.6903 204.166 83.4489 203.962C83.2121 203.759 82.8428 203.602 82.3409 203.493L80.4801 203.103C79.4337 202.885 78.6596 202.518 78.1577 202.002C77.6558 201.481 77.4072 200.823 77.4119 200.028C77.4072 199.355 77.5895 198.773 77.9588 198.28C78.3329 197.783 78.8513 197.4 79.5142 197.13C80.1818 196.855 80.9512 196.718 81.8224 196.718C83.1008 196.718 84.107 196.99 84.8409 197.535C85.5795 198.079 86.0365 198.815 86.2116 199.743ZM88.566 211.86V196.86H91.0945V198.664H91.2436C91.3762 198.399 91.5632 198.117 91.8047 197.819C92.0462 197.516 92.3729 197.258 92.7848 197.045C93.1967 196.827 93.7223 196.718 94.3615 196.718C95.2043 196.718 95.9642 196.933 96.6413 197.364C97.3232 197.79 97.8629 198.422 98.2607 199.261C98.6631 200.094 98.8643 201.117 98.8643 202.329C98.8643 203.527 98.6678 204.545 98.2749 205.383C97.8819 206.221 97.3468 206.86 96.6697 207.3C95.9927 207.741 95.2256 207.961 94.3686 207.961C93.7436 207.961 93.2251 207.857 92.8132 207.648C92.4013 207.44 92.0698 207.189 91.8189 206.895C91.5727 206.597 91.3809 206.315 91.2436 206.05H91.1371V211.86H88.566ZM91.0874 202.314C91.0874 203.02 91.1868 203.638 91.3857 204.168C91.5892 204.698 91.8804 205.113 92.2592 205.411C92.6428 205.705 93.1068 205.851 93.6513 205.851C94.2195 205.851 94.6953 205.7 95.0788 205.397C95.4624 205.089 95.7512 204.67 95.9453 204.14C96.1442 203.605 96.2436 202.996 96.2436 202.314C96.2436 201.637 96.1465 201.036 95.9524 200.511C95.7583 199.985 95.4695 199.573 95.0859 199.275C94.7024 198.976 94.2242 198.827 93.6513 198.827C93.102 198.827 92.6357 198.972 92.2521 199.261C91.8686 199.549 91.5774 199.954 91.3785 200.475C91.1844 200.996 91.0874 201.609 91.0874 202.314ZM101.066 207.769V196.86H103.559V198.678H103.673C103.871 198.048 104.212 197.563 104.695 197.222C105.183 196.877 105.739 196.704 106.364 196.704C106.506 196.704 106.665 196.711 106.84 196.725C107.02 196.734 107.169 196.751 107.288 196.775V199.14C107.179 199.102 107.006 199.069 106.769 199.04C106.537 199.007 106.312 198.991 106.094 198.991C105.626 198.991 105.204 199.092 104.83 199.296C104.461 199.495 104.17 199.772 103.957 200.127C103.744 200.482 103.637 200.892 103.637 201.356V207.769H101.066ZM113.376 207.982C112.282 207.982 111.338 207.755 110.542 207.3C109.752 206.841 109.143 206.192 108.717 205.354C108.291 204.511 108.078 203.52 108.078 202.378C108.078 201.256 108.291 200.271 108.717 199.424C109.148 198.572 109.749 197.909 110.521 197.435C111.293 196.957 112.199 196.718 113.241 196.718C113.913 196.718 114.548 196.827 115.145 197.045C115.746 197.258 116.276 197.589 116.735 198.039C117.199 198.489 117.564 199.062 117.829 199.758C118.094 200.449 118.227 201.273 118.227 202.229V203.018H109.285V201.285H115.762C115.758 200.792 115.651 200.354 115.443 199.971C115.234 199.582 114.943 199.277 114.569 199.055C114.2 198.832 113.769 198.721 113.277 198.721C112.751 198.721 112.289 198.849 111.892 199.104C111.494 199.355 111.184 199.687 110.961 200.099C110.743 200.506 110.632 200.953 110.627 201.441V202.954C110.627 203.588 110.743 204.133 110.975 204.587C111.208 205.037 111.532 205.383 111.949 205.624C112.365 205.861 112.853 205.979 113.412 205.979C113.786 205.979 114.124 205.927 114.427 205.823C114.73 205.714 114.993 205.556 115.216 205.347C115.438 205.139 115.606 204.881 115.72 204.573L118.12 204.843C117.969 205.477 117.68 206.031 117.254 206.505C116.833 206.974 116.293 207.338 115.635 207.599C114.976 207.854 114.224 207.982 113.376 207.982ZM129.024 199.743L126.68 199.999C126.614 199.762 126.498 199.54 126.332 199.332C126.171 199.123 125.954 198.955 125.679 198.827C125.404 198.699 125.068 198.636 124.67 198.636C124.135 198.636 123.686 198.752 123.321 198.984C122.961 199.216 122.784 199.516 122.788 199.886C122.784 200.203 122.9 200.461 123.136 200.66C123.378 200.859 123.776 201.022 124.33 201.15L126.19 201.547C127.223 201.77 127.99 202.123 128.491 202.606C128.998 203.089 129.254 203.721 129.259 204.502C129.254 205.189 129.053 205.795 128.655 206.32C128.262 206.841 127.715 207.248 127.014 207.542C126.313 207.835 125.509 207.982 124.599 207.982C123.264 207.982 122.189 207.703 121.375 207.144C120.561 206.581 120.075 205.797 119.919 204.793L122.426 204.552C122.54 205.044 122.781 205.416 123.151 205.667C123.52 205.918 124 206.043 124.592 206.043C125.203 206.043 125.693 205.918 126.062 205.667C126.437 205.416 126.624 205.106 126.624 204.736C126.624 204.424 126.503 204.166 126.261 203.962C126.025 203.759 125.655 203.602 125.153 203.493L123.293 203.103C122.246 202.885 121.472 202.518 120.97 202.002C120.468 201.481 120.22 200.823 120.224 200.028C120.22 199.355 120.402 198.773 120.771 198.28C121.145 197.783 121.664 197.4 122.327 197.13C122.994 196.855 123.764 196.718 124.635 196.718C125.913 196.718 126.92 196.99 127.653 197.535C128.392 198.079 128.849 198.815 129.024 199.743ZM140.001 199.743L137.657 199.999C137.591 199.762 137.475 199.54 137.309 199.332C137.148 199.123 136.93 198.955 136.656 198.827C136.381 198.699 136.045 198.636 135.647 198.636C135.112 198.636 134.662 198.752 134.298 198.984C133.938 199.216 133.76 199.516 133.765 199.886C133.76 200.203 133.876 200.461 134.113 200.66C134.354 200.859 134.752 201.022 135.306 201.15L137.167 201.547C138.199 201.77 138.966 202.123 139.468 202.606C139.975 203.089 140.23 203.721 140.235 204.502C140.23 205.189 140.029 205.795 139.631 206.32C139.238 206.841 138.692 207.248 137.991 207.542C137.29 207.835 136.485 207.982 135.576 207.982C134.241 207.982 133.166 207.703 132.352 207.144C131.537 206.581 131.052 205.797 130.896 204.793L133.403 204.552C133.516 205.044 133.758 205.416 134.127 205.667C134.496 205.918 134.977 206.043 135.569 206.043C136.18 206.043 136.67 205.918 137.039 205.667C137.413 205.416 137.6 205.106 137.6 204.736C137.6 204.424 137.479 204.166 137.238 203.962C137.001 203.759 136.632 203.602 136.13 203.493L134.269 203.103C133.223 202.885 132.449 202.518 131.947 202.002C131.445 201.481 131.196 200.823 131.201 200.028C131.196 199.355 131.379 198.773 131.748 198.28C132.122 197.783 132.64 197.4 133.303 197.13C133.971 196.855 134.74 196.718 135.612 196.718C136.89 196.718 137.896 196.99 138.63 197.535C139.369 198.079 139.826 198.815 140.001 199.743ZM147.114 207.982C146.048 207.982 145.125 207.748 144.344 207.279C143.562 206.81 142.956 206.154 142.526 205.312C142.099 204.469 141.886 203.484 141.886 202.357C141.886 201.23 142.099 200.243 142.526 199.395C142.956 198.548 143.562 197.89 144.344 197.421C145.125 196.952 146.048 196.718 147.114 196.718C148.179 196.718 149.102 196.952 149.884 197.421C150.665 197.89 151.268 198.548 151.695 199.395C152.125 200.243 152.341 201.23 152.341 202.357C152.341 203.484 152.125 204.469 151.695 205.312C151.268 206.154 150.665 206.81 149.884 207.279C149.102 207.748 148.179 207.982 147.114 207.982ZM147.128 205.922C147.705 205.922 148.188 205.764 148.577 205.447C148.965 205.125 149.254 204.694 149.443 204.154C149.637 203.614 149.734 203.013 149.734 202.35C149.734 201.682 149.637 201.079 149.443 200.539C149.254 199.994 148.965 199.561 148.577 199.239C148.188 198.917 147.705 198.756 147.128 198.756C146.536 198.756 146.044 198.917 145.651 199.239C145.262 199.561 144.971 199.994 144.777 200.539C144.588 201.079 144.493 201.682 144.493 202.35C144.493 203.013 144.588 203.614 144.777 204.154C144.971 204.694 145.262 205.125 145.651 205.447C146.044 205.764 146.536 205.922 147.128 205.922Z" fill="#004255"/>
<path fill-rule="evenodd" clip-rule="evenodd" d="M68.0634 118.108V62.5502C65.5322 62.2409 63.1729 61.0792 61.3643 59.2513C59.2159 57.1022 58.0087 54.1721 58.0087 51.1111C58.0087 48.0541 59.2158 45.12 61.3643 42.9749C63.5049 40.806 66.4073 39.5927 69.4307 39.5888H136.654C139.701 39.5333 142.642 40.7188 144.818 42.8877C146.994 45.0526 148.22 48.0185 148.22 51.1112C148.22 54.204 146.993 57.1658 144.818 59.3347C142.642 61.4996 139.701 62.6892 136.654 62.6297H126.189V69.2077L139.38 69.2117C139.591 68.5139 139.969 67.8794 140.481 67.364L140.489 67.36H140.485C141.747 66.0793 143.645 65.6947 145.29 66.3886C146.938 67.0785 148.013 68.7122 148.013 70.5241C148.013 72.3321 146.938 73.9657 145.29 74.6596C143.645 75.3535 141.747 74.9689 140.485 73.6882L140.477 73.6842H140.481C140.005 73.2045 139.645 72.6216 139.43 71.9793H126.188V76.9237C126.192 78.3273 125.634 79.6754 124.645 80.6587C123.653 81.646 122.317 82.1932 120.927 82.1892H114.712V87.8513C114.72 88.224 114.583 88.5888 114.325 88.8544C114.067 89.1241 113.716 89.2747 113.349 89.2747C112.977 89.2747 112.626 89.1241 112.368 88.8544C112.114 88.5888 111.974 88.224 111.985 87.8513V82.1932H105.766C104.38 82.1972 103.044 81.646 102.048 80.6587C101.059 79.6794 100.501 78.3312 100.505 76.9276V62.6337H82.4027V118.108H103.993C103.555 117.763 103.141 117.391 102.75 116.99C100.301 114.48 98.9341 111.086 98.9536 107.553V95.4761C98.9536 94.7149 99.563 94.0923 100.317 94.0923H126.383C127.133 94.0923 127.742 94.7148 127.742 95.4761V97.4666H130.344C130.406 97.4666 130.469 97.4705 130.531 97.4784C132.367 97.7362 134.047 98.6759 135.242 100.119C136.445 101.578 137.102 103.426 137.09 105.329C137.086 109.278 134.223 112.625 130.367 113.176C130.309 113.188 130.246 113.192 130.184 113.192H126.531C125.652 115.123 124.324 116.812 122.664 118.113H141.824C143.469 118.109 145.051 118.775 146.203 119.968C148.605 122.462 148.605 126.447 146.203 128.941C145.051 130.135 143.469 130.805 141.824 130.801H64.3242C62.6562 130.797 61.0547 130.127 59.8672 128.937C58.6758 127.759 58 126.146 58 124.457C58 122.767 58.6758 121.15 59.8672 119.972C61.0547 118.783 62.6563 118.113 64.3242 118.109L68.0634 118.108ZM70.7901 62.6335V118.108H79.6807V62.6335H70.7901ZM69.4268 59.8658H136.654C138.958 59.8896 141.173 58.9816 142.814 57.3361C144.451 55.6906 145.373 53.4504 145.373 51.111C145.373 48.7716 144.451 46.5314 142.814 44.8859C141.173 43.2444 138.958 42.3325 136.654 42.3562H69.4268C67.1221 42.3562 64.9111 43.2801 63.2783 44.9335C61.6494 46.5632 60.7315 48.7876 60.7315 51.111C60.7315 53.4345 61.6494 55.6629 63.2783 57.2925C64.9111 58.9419 67.1222 59.8658 69.4268 59.8658ZM123.458 62.6335H103.235V76.9274C103.231 77.5895 103.489 78.2279 103.953 78.6918C104.442 79.1677 105.09 79.4333 105.766 79.4254H120.926C121.602 79.4333 122.25 79.1677 122.738 78.6918C123.203 78.2279 123.461 77.5896 123.457 76.9274L123.458 62.6335ZM124.274 111.51C124.301 111.379 124.348 111.256 124.411 111.137C124.813 109.988 125.02 108.778 125.016 107.557V96.8594H101.676V107.557C101.657 110.36 102.739 113.053 104.676 115.047C106.606 117.014 109.231 118.116 111.965 118.108H114.618C118.864 118.132 122.692 115.515 124.27 111.51L124.274 111.51ZM127.442 110.428H130.071C132.552 110.039 134.376 107.87 134.372 105.329C134.384 104.076 133.958 102.862 133.173 101.899C132.434 101.011 131.403 100.42 130.274 100.234H127.743V107.557C127.747 108.521 127.645 109.484 127.446 110.428H127.442ZM112.004 120.876H64.3242C63.371 120.88 62.457 121.26 61.7773 121.938C61.1093 122.6 60.7304 123.508 60.7304 124.452C60.7304 125.4 61.1093 126.308 61.7773 126.97C62.4569 127.648 63.3711 128.029 64.3242 128.029H141.824C142.742 128.037 143.625 127.664 144.269 127.002C145.617 125.578 145.617 123.326 144.269 121.903C143.625 121.241 142.742 120.868 141.824 120.876L112.004 120.876ZM74.1562 51.1112C74.1562 50.6592 73.9765 50.2231 73.6601 49.9058L73.6054 49.8503L73.6093 49.8464C73.0194 49.2952 72.1288 49.2397 71.4765 49.7116C70.8241 50.1834 70.5859 51.0597 70.9062 51.8051C71.2304 52.5505 72.0234 52.9629 72.8085 52.7964C73.5936 52.6298 74.1562 51.9241 74.1562 51.1112ZM75.5937 47.9471L75.4999 47.8599L75.496 47.8638C73.7538 46.147 70.9687 46.1906 69.2772 47.955C67.5819 49.7235 67.617 52.5505 69.3553 54.2714H69.3631H69.3592C71.0819 56.02 73.8748 56.0161 75.5936 54.2674C77.3124 52.5228 77.3124 49.6878 75.5897 47.9432L75.5937 47.9471ZM145.278 70.5279C145.278 69.7111 144.711 69.0093 143.922 68.8507C143.137 68.6921 142.348 69.1204 142.039 69.8737C141.731 70.6271 141.992 71.4955 142.66 71.9475C143.328 72.3995 144.215 72.3122 144.785 71.7333C145.102 71.4122 145.278 70.9799 145.278 70.5279ZM103.481 51.111C103.485 50.659 103.305 50.2228 102.988 49.9056L102.938 49.8501C102.266 49.1959 101.199 49.2197 100.559 49.9017C99.9143 50.5837 99.9377 51.6661 100.61 52.3203L100.664 52.3759C101.328 52.9904 102.352 52.9627 102.988 52.3203L103.043 52.2688C103.328 51.9516 103.485 51.5392 103.481 51.111ZM104.918 47.9469L104.828 47.8636C103.074 46.1865 100.324 46.2459 98.6447 47.9984C96.965 49.751 96.9806 52.5464 98.6838 54.2751L98.7775 54.3623H98.7736C100.504 56.0316 103.231 55.992 104.918 54.2751L105.004 54.1839C106.649 52.4274 106.613 49.6598 104.922 47.9469L104.918 47.9469ZM88.7462 51.111C88.7501 50.659 88.5743 50.2268 88.2618 49.9056L88.254 49.9017V49.8977C87.5938 49.2356 86.5313 49.2395 85.8751 49.9056L85.8204 49.9612V49.9572C85.2149 50.6352 85.2423 51.674 85.8751 52.3203L85.9298 52.3758C86.5938 52.9865 87.6173 52.9627 88.254 52.3203L88.3086 52.2688C88.5938 51.9516 88.7501 51.5392 88.7462 51.111ZM90.1759 47.9469H90.1798C89.3516 47.1063 88.2345 46.6384 87.0626 46.6384C85.8946 46.6384 84.7774 47.1063 83.9493 47.9469L83.8633 48.0421H83.8672C82.2227 49.7986 82.2617 52.5661 83.9493 54.2751L84.043 54.3623C85.7735 56.0316 88.5 55.992 90.1875 54.2751L90.2695 54.1839C91.9101 52.4273 91.875 49.6638 90.1875 47.9509L90.1759 47.9469Z" fill="#F7F7F7"/>
</svg>
