<svg width="115" height="115" viewBox="0 0 115 115" fill="none" xmlns="http://www.w3.org/2000/svg">
<circle cx="57.5" cy="57.5" r="57.5" fill="#009AC7"/>
<path fill-rule="evenodd" clip-rule="evenodd" d="M30.8514 59.3526C31.4452 63.751 34.1873 67.7315 38.3202 70.7316L38.3241 70.7277C43.8788 74.5324 50.4841 76.505 57.2151 76.38C63.9456 76.505 70.5511 74.5323 76.1061 70.7277C80.4967 67.5441 83.317 63.2589 83.6608 58.5287H83.6647C79.5709 57.2631 75.3131 56.6107 71.0317 56.599C66.4731 56.5873 61.9419 57.3139 57.6137 58.7513C48.9575 61.638 39.6294 61.8449 30.8514 59.3526ZM83.5624 55.669H83.5663C79.4882 54.4932 75.2733 53.8917 71.0313 53.8799C66.1836 53.8682 61.3633 54.6417 56.7613 56.1729C48.3433 58.9776 39.2573 59.0909 30.7733 56.4972C31.1444 51.8019 33.9569 47.548 38.3241 44.3842L38.3202 44.3802C43.8788 40.5794 50.4802 38.6029 57.2152 38.7279C63.9457 38.6029 70.5472 40.5795 76.1062 44.3802C80.2117 47.3568 82.946 51.2982 83.5671 55.6652L83.5624 55.669ZM36.7227 72.9386C31.3321 69.0324 28 63.5948 28 57.5596C28 51.5205 31.332 46.0866 36.7227 42.1806H36.7266C42.7461 38.04 49.9106 35.8837 57.2146 36.0048C64.5193 35.8837 71.6836 38.04 77.7066 42.1806C83.0933 46.0868 86.4293 51.5244 86.4293 57.5596C86.4293 63.5987 83.0973 69.0326 77.7066 72.9386C71.6832 77.0792 64.5186 79.2355 57.2146 79.1105C49.9099 79.2316 42.7456 77.0753 36.7266 72.9347L36.7227 72.9386Z" fill="#E1EFEF"/>
</svg>
