<svg width="207" height="233" viewBox="0 0 207 233" fill="none" xmlns="http://www.w3.org/2000/svg">
<rect y="57" width="206.346" height="176" rx="10" fill="#E1EFEF"/>
<path d="M0 10C0 4.47716 4.47715 0 10 0H196.346C201.868 0 206.346 4.47715 206.346 10V167H0V10Z" fill="#006E8D"/>
<path d="M54.239 190.455V205H51.604V193.018H51.5188L48.1168 195.192V192.777L51.7319 190.455H54.239ZM68.369 194.091V196.08H62.0977V194.091H68.369ZM63.6459 191.477H66.217V201.719C66.217 202.064 66.2691 202.33 66.3732 202.514C66.4821 202.694 66.6242 202.817 66.7994 202.884C66.9745 202.95 67.1687 202.983 67.3817 202.983C67.5427 202.983 67.6895 202.971 67.8221 202.947C67.9594 202.924 68.0636 202.902 68.1346 202.884L68.5678 204.893C68.4305 204.941 68.234 204.993 67.9783 205.05C67.7274 205.107 67.4196 205.14 67.055 205.149C66.4111 205.168 65.8311 205.071 65.315 204.858C64.7989 204.64 64.3893 204.304 64.0863 203.849C63.788 203.395 63.6412 202.827 63.6459 202.145V191.477ZM73.6584 205.22C72.9671 205.22 72.3445 205.097 71.7905 204.851C71.2412 204.6 70.8056 204.231 70.4837 203.743C70.1664 203.255 70.0078 202.654 70.0078 201.939C70.0078 201.323 70.1214 200.814 70.3487 200.412C70.576 200.009 70.8861 199.688 71.2791 199.446C71.6721 199.205 72.1148 199.022 72.6072 198.899C73.1044 198.771 73.6181 198.679 74.1484 198.622C74.7876 198.556 75.3061 198.497 75.7038 198.445C76.1016 198.388 76.3904 198.303 76.5703 198.189C76.755 198.071 76.8473 197.888 76.8473 197.642V197.599C76.8473 197.064 76.6887 196.65 76.3714 196.357C76.0542 196.063 75.5973 195.916 75.0007 195.916C74.371 195.916 73.8714 196.054 73.5021 196.328C73.1375 196.603 72.8913 196.927 72.7635 197.301L70.3629 196.96C70.5523 196.297 70.8648 195.743 71.3004 195.298C71.736 194.848 72.2687 194.512 72.8984 194.29C73.5282 194.062 74.2242 193.949 74.9865 193.949C75.5121 193.949 76.0353 194.01 76.5561 194.134C77.0769 194.257 77.5528 194.46 77.9837 194.744C78.4145 195.024 78.7602 195.405 79.0206 195.888C79.2857 196.371 79.4183 196.974 79.4183 197.699V205H76.9467V203.501H76.8615C76.7053 203.804 76.4851 204.089 76.201 204.354C75.9216 204.614 75.5689 204.825 75.1428 204.986C74.7214 205.142 74.2266 205.22 73.6584 205.22ZM74.326 203.331C74.8421 203.331 75.2895 203.229 75.6683 203.026C76.0471 202.817 76.3383 202.543 76.5419 202.202C76.7502 201.861 76.8544 201.489 76.8544 201.087V199.801C76.7739 199.867 76.6366 199.929 76.4425 199.986C76.2531 200.043 76.04 200.092 75.8033 200.135C75.5665 200.178 75.3321 200.215 75.1001 200.249C74.8681 200.282 74.6669 200.31 74.4964 200.334C74.1129 200.386 73.7696 200.471 73.4666 200.589C73.1636 200.708 72.9245 200.874 72.7493 201.087C72.5741 201.295 72.4865 201.565 72.4865 201.896C72.4865 202.37 72.6593 202.727 73.005 202.969C73.3506 203.21 73.791 203.331 74.326 203.331ZM81.8615 205V203.366L87.4865 196.314V196.222H82.0462V194.091H90.6328V195.845L85.2777 202.777V202.869H90.8175V205H81.8615ZM96.3732 205.22C95.6819 205.22 95.0593 205.097 94.5053 204.851C93.9561 204.6 93.5205 204.231 93.1985 203.743C92.8813 203.255 92.7227 202.654 92.7227 201.939C92.7227 201.323 92.8363 200.814 93.0636 200.412C93.2908 200.009 93.601 199.688 93.994 199.446C94.387 199.205 94.8297 199.022 95.3221 198.899C95.8192 198.771 96.333 198.679 96.8633 198.622C97.5025 198.556 98.0209 198.497 98.4187 198.445C98.8164 198.388 99.1052 198.303 99.2852 198.189C99.4698 198.071 99.5621 197.888 99.5621 197.642V197.599C99.5621 197.064 99.4035 196.65 99.0863 196.357C98.7691 196.063 98.3121 195.916 97.7156 195.916C97.0858 195.916 96.5863 196.054 96.217 196.328C95.8524 196.603 95.6062 196.927 95.4783 197.301L93.0778 196.96C93.2672 196.297 93.5797 195.743 94.0153 195.298C94.4509 194.848 94.9835 194.512 95.6133 194.29C96.243 194.062 96.939 193.949 97.7013 193.949C98.2269 193.949 98.7501 194.01 99.2709 194.134C99.7918 194.257 100.268 194.46 100.699 194.744C101.129 195.024 101.475 195.405 101.735 195.888C102.001 196.371 102.133 196.974 102.133 197.699V205H99.6616V203.501H99.5763C99.4201 203.804 99.1999 204.089 98.9158 204.354C98.6365 204.614 98.2837 204.825 97.8576 204.986C97.4362 205.142 96.9414 205.22 96.3732 205.22ZM97.0408 203.331C97.5569 203.331 98.0044 203.229 98.3832 203.026C98.762 202.817 99.0531 202.543 99.2567 202.202C99.4651 201.861 99.5692 201.489 99.5692 201.087V199.801C99.4888 199.867 99.3514 199.929 99.1573 199.986C98.9679 200.043 98.7549 200.092 98.5181 200.135C98.2814 200.178 98.047 200.215 97.815 200.249C97.583 200.282 97.3817 200.31 97.2113 200.334C96.8278 200.386 96.4845 200.471 96.1815 200.589C95.8784 200.708 95.6393 200.874 95.4641 201.087C95.2889 201.295 95.2013 201.565 95.2013 201.896C95.2013 202.37 95.3742 202.727 95.7198 202.969C96.0655 203.21 96.5058 203.331 97.0408 203.331ZM112.819 205.22C112.127 205.22 111.505 205.097 110.951 204.851C110.401 204.6 109.966 204.231 109.644 203.743C109.327 203.255 109.168 202.654 109.168 201.939C109.168 201.323 109.282 200.814 109.509 200.412C109.736 200.009 110.046 199.688 110.439 199.446C110.832 199.205 111.275 199.022 111.767 198.899C112.265 198.771 112.778 198.679 113.309 198.622C113.948 198.556 114.466 198.497 114.864 198.445C115.262 198.388 115.551 198.303 115.73 198.189C115.915 198.071 116.007 197.888 116.007 197.642V197.599C116.007 197.064 115.849 196.65 115.532 196.357C115.214 196.063 114.757 195.916 114.161 195.916C113.531 195.916 113.032 196.054 112.662 196.328C112.298 196.603 112.051 196.927 111.924 197.301L109.523 196.96C109.712 196.297 110.025 195.743 110.461 195.298C110.896 194.848 111.429 194.512 112.059 194.29C112.688 194.062 113.384 193.949 114.147 193.949C114.672 193.949 115.195 194.01 115.716 194.134C116.237 194.257 116.713 194.46 117.144 194.744C117.575 195.024 117.92 195.405 118.181 195.888C118.446 196.371 118.578 196.974 118.578 197.699V205H116.107V203.501H116.022C115.865 203.804 115.645 204.089 115.361 204.354C115.082 204.614 114.729 204.825 114.303 204.986C113.882 205.142 113.387 205.22 112.819 205.22ZM113.486 203.331C114.002 203.331 114.45 203.229 114.828 203.026C115.207 202.817 115.498 202.543 115.702 202.202C115.91 201.861 116.015 201.489 116.015 201.087V199.801C115.934 199.867 115.797 199.929 115.603 199.986C115.413 200.043 115.2 200.092 114.963 200.135C114.727 200.178 114.492 200.215 114.26 200.249C114.028 200.282 113.827 200.31 113.657 200.334C113.273 200.386 112.93 200.471 112.627 200.589C112.324 200.708 112.085 200.874 111.909 201.087C111.734 201.295 111.647 201.565 111.647 201.896C111.647 202.37 111.819 202.727 112.165 202.969C112.511 203.21 112.951 203.331 113.486 203.331ZM123.735 190.455V205H121.164V190.455H123.735ZM135.388 205.192C134.531 205.192 133.764 204.972 133.087 204.531C132.41 204.091 131.875 203.452 131.482 202.614C131.089 201.776 130.892 200.758 130.892 199.56C130.892 198.348 131.091 197.325 131.489 196.491C131.891 195.653 132.433 195.021 133.115 194.595C133.797 194.164 134.557 193.949 135.395 193.949C136.034 193.949 136.56 194.058 136.972 194.276C137.384 194.489 137.71 194.747 137.952 195.05C138.193 195.348 138.38 195.63 138.513 195.895H138.619V190.455H141.197V205H138.669V203.281H138.513C138.38 203.546 138.188 203.828 137.937 204.126C137.687 204.42 137.355 204.671 136.943 204.879C136.531 205.088 136.013 205.192 135.388 205.192ZM136.105 203.082C136.65 203.082 137.114 202.936 137.497 202.642C137.881 202.344 138.172 201.929 138.371 201.399C138.57 200.869 138.669 200.251 138.669 199.545C138.669 198.84 138.57 198.227 138.371 197.706C138.177 197.185 137.888 196.78 137.504 196.491C137.125 196.203 136.659 196.058 136.105 196.058C135.532 196.058 135.054 196.207 134.67 196.506C134.287 196.804 133.998 197.216 133.804 197.741C133.61 198.267 133.513 198.868 133.513 199.545C133.513 200.227 133.61 200.836 133.804 201.371C134.003 201.901 134.294 202.32 134.678 202.628C135.066 202.931 135.542 203.082 136.105 203.082ZM143.937 205V194.091H146.508V205H143.937ZM144.243 192.656L145.833 189.411H148.348L146.167 192.656H144.243ZM152.291 205.22C151.6 205.22 150.977 205.097 150.423 204.851C149.874 204.6 149.438 204.231 149.116 203.743C148.799 203.255 148.641 202.654 148.641 201.939C148.641 201.323 148.754 200.814 148.982 200.412C149.209 200.009 149.519 199.688 149.912 199.446C150.305 199.205 150.748 199.022 151.24 198.899C151.737 198.771 152.251 198.679 152.781 198.622C153.42 198.556 153.939 198.497 154.337 198.445C154.734 198.388 155.023 198.303 155.203 198.189C155.388 198.071 155.48 197.888 155.48 197.642V197.599C155.48 197.064 155.321 196.65 155.004 196.357C154.687 196.063 154.23 195.916 153.634 195.916C153.004 195.916 152.504 196.054 152.135 196.328C151.77 196.603 151.524 196.927 151.396 197.301L148.996 196.96C149.185 196.297 149.498 195.743 149.933 195.298C150.369 194.848 150.902 194.512 151.531 194.29C152.161 194.062 152.857 193.949 153.619 193.949C154.145 193.949 154.668 194.01 155.189 194.134C155.71 194.257 156.186 194.46 156.616 194.744C157.047 195.024 157.393 195.405 157.653 195.888C157.919 196.371 158.051 196.974 158.051 197.699V205H155.58V203.501H155.494C155.338 203.804 155.118 204.089 154.834 204.354C154.554 204.614 154.202 204.825 153.776 204.986C153.354 205.142 152.859 205.22 152.291 205.22ZM152.959 203.331C153.475 203.331 153.922 203.229 154.301 203.026C154.68 202.817 154.971 202.543 155.175 202.202C155.383 201.861 155.487 201.489 155.487 201.087V199.801C155.407 199.867 155.269 199.929 155.075 199.986C154.886 200.043 154.673 200.092 154.436 200.135C154.199 200.178 153.965 200.215 153.733 200.249C153.501 200.282 153.3 200.31 153.129 200.334C152.746 200.386 152.402 200.471 152.099 200.589C151.796 200.708 151.557 200.874 151.382 201.087C151.207 201.295 151.119 201.565 151.119 201.896C151.119 202.37 151.292 202.727 151.638 202.969C151.983 203.21 152.424 203.331 152.959 203.331Z" fill="#004255"/>
<path fill-rule="evenodd" clip-rule="evenodd" d="M84.5186 101.917C84.5655 101.953 84.6123 101.992 84.6553 102.031C89.8545 106.218 96.3233 108.499 102.995 108.499C109.667 108.499 116.14 106.218 121.335 102.031C121.382 101.992 121.429 101.953 121.48 101.913C122.226 101.304 122.941 100.66 123.62 99.9799L123.929 99.6674C124.007 99.558 124.101 99.4564 124.21 99.3744C125.366 98.1517 126.413 96.8353 127.339 95.433C127.398 95.3002 127.48 95.1752 127.577 95.0658C130.296 90.8197 131.859 85.9369 132.105 80.9018C132.105 80.8549 132.109 80.8081 132.113 80.7573C132.132 80.3081 132.144 79.8589 132.144 79.4057V75.7065C129.98 77.2768 127.554 78.4526 124.98 79.1792C117.831 81.2104 110.425 82.1792 102.996 82.062C95.566 82.1792 88.1597 81.2065 81.0117 79.1792C78.4414 78.4487 76.0156 77.273 73.8515 75.7065V79.4057C73.8398 84.8862 75.3867 90.2537 78.3046 94.8897C78.3554 94.9561 78.4023 95.0264 78.4413 95.1045C79.5741 96.8662 80.8905 98.499 82.3749 99.9795C83.0546 100.659 83.7694 101.304 84.5155 101.917L84.5186 101.917ZM83.4756 104.566C89.0654 108.886 95.9326 111.226 102.999 111.226C110.061 111.226 116.929 108.886 122.519 104.566C124.362 105.148 126.042 106.148 127.437 107.484C127.874 107.91 128.136 108.484 128.167 109.093C128.101 109.722 127.808 110.304 127.343 110.73C126.237 111.91 124.179 113.042 121.163 114.019C115.261 115.738 109.14 116.558 102.995 116.464C96.8506 116.558 90.7291 115.738 84.8311 114.019C81.8155 113.042 79.7569 111.906 78.6514 110.73C78.1866 110.304 77.8936 109.722 77.8272 109.093C77.8585 108.484 78.1163 107.91 78.5538 107.484C79.9483 106.148 81.6319 105.148 83.4718 104.566H83.4756ZM76.5225 105.683C75.6201 106.617 75.1163 107.863 75.1123 109.16C75.1826 110.456 75.7412 111.683 76.6709 112.593C78.0811 114.093 80.5264 115.484 83.9912 116.609C90.1631 118.413 96.5692 119.285 102.995 119.191C109.421 119.285 115.827 118.413 121.995 116.609C125.46 115.484 127.905 114.097 129.315 112.593C130.249 111.687 130.804 110.46 130.874 109.16C130.874 107.859 130.366 106.617 129.464 105.683C128.155 104.339 126.577 103.281 124.835 102.581C125.069 102.359 125.3 102.136 125.53 101.91L125.546 101.894V101.898C129.499 102.39 133.515 101.839 137.194 100.304C140.573 101.995 142.913 103.859 144.182 105.777H144.186C144.776 106.617 145.143 107.593 145.26 108.616C145.335 109.581 145.147 110.55 144.713 111.413C143.635 113.351 142.065 114.968 140.159 116.101C135.901 118.933 129.542 121.132 122.077 122.534C113.87 124.003 105.522 124.519 97.1937 124.066C89.4437 123.765 81.7637 122.429 74.3657 120.089C68.2954 118.038 63.8427 115.37 61.8267 112.359C61.4166 111.765 61.1041 111.105 60.9049 110.413C60.5338 109.03 60.7408 107.554 61.4752 106.327C62.5533 104.589 64.0221 103.124 65.7643 102.054C69.1354 99.9407 72.7995 98.3392 76.6393 97.304C77.7643 98.9563 79.0416 100.495 80.4596 101.906C80.6861 102.132 80.9205 102.355 81.1588 102.577C79.4166 103.277 77.8385 104.331 76.526 105.679L76.5225 105.683ZM112.995 41.851C112.738 41.1791 113.046 40.4174 113.706 40.1205C114.363 39.8236 115.14 40.0931 115.472 40.7338C117.136 44.4174 116.292 47.3549 115.531 50.0111C114.831 52.4603 114.214 54.6009 116.843 56.6791C117.429 57.1439 117.531 57.9994 117.066 58.5893C116.601 59.1752 115.745 59.2768 115.16 58.8119C111.097 55.5931 111.941 52.6439 112.91 49.265C113.542 47.0658 114.242 44.6205 112.992 41.8509L112.995 41.851ZM90.5035 41.851C90.2457 41.1791 90.5582 40.4174 91.2144 40.1205C91.8707 39.8236 92.648 40.0931 92.98 40.7338C94.6441 44.4135 93.8003 47.3549 93.0386 50.0111C92.3394 52.4603 91.7222 54.6009 94.3511 56.683V56.6791C94.9371 57.1439 95.0386 57.9994 94.5738 58.5893C94.1089 59.1752 93.2535 59.2768 92.6676 58.8119C88.6051 55.5931 89.4488 52.6439 90.4176 49.265C91.0504 47.0658 91.7496 44.6205 90.4996 41.8509L90.5035 41.851ZM101.804 41.851C101.547 41.1791 101.855 40.4174 102.515 40.1205C103.172 39.8236 103.949 40.0931 104.281 40.7338C105.91 44.3354 105.047 47.2572 104.261 49.9174C103.531 52.394 102.883 54.5776 105.543 56.683V56.6791C106.109 57.1517 106.199 57.9916 105.742 58.5697C105.285 59.1478 104.449 59.2533 103.859 58.8119C99.7575 55.5619 100.644 52.558 101.648 49.1517C102.297 46.9525 103.012 44.5423 101.797 41.8509L101.804 41.851ZM127.851 99.351C128.379 98.6947 128.883 98.019 129.359 97.3198H129.355C131.301 97.2221 133.219 96.8042 135.027 96.0893C137.09 95.2768 138.988 94.0971 140.629 92.6088C143.371 90.0932 143.852 85.9447 141.754 82.8705C140.824 81.4994 139.5 80.4447 137.957 79.851C136.977 79.476 135.93 79.2963 134.883 79.3276V77.3276C136.355 77.2924 137.816 77.5815 139.164 78.1791C140.887 78.9447 142.359 80.1791 143.418 81.7377C146.078 85.6439 145.465 90.9096 141.98 94.1007C140.418 95.5187 138.644 96.6827 136.723 97.5538L136.621 97.6007H136.625C133.867 98.8273 130.871 99.4288 127.855 99.3546L127.851 99.351ZM143.812 96.1088H143.809C142.687 97.1322 141.465 98.0385 140.16 98.8197C142.648 100.136 144.805 102.003 146.461 104.281C147.301 105.499 147.82 106.913 147.973 108.386C148.094 109.835 147.816 111.288 147.172 112.593C145.891 114.98 143.988 116.976 141.672 118.378C137.113 121.406 130.402 123.749 122.59 125.21V125.206C114.176 126.722 105.61 127.249 97.0739 126.788C89.0739 126.476 81.1519 125.093 73.5189 122.675C66.8822 120.433 61.9409 117.402 59.5809 113.874C59.0028 113.034 58.5653 112.109 58.284 111.132C57.7137 109.062 58.0106 106.851 59.1004 105.003C60.3856 102.886 62.1512 101.101 64.2527 99.7923C67.6316 97.6517 71.3035 96.0071 75.1507 94.9095C72.5023 90.1712 71.1116 84.8315 71.1234 79.4055C71.1234 76.636 71.1703 73.8313 71.1234 71.0657C71.1234 67.7415 74.9046 64.886 81.014 62.9563V62.9524C88.1585 60.9251 95.565 59.9563 102.994 60.0735C110.424 59.9563 117.83 60.9289 124.978 62.9563C131.06 64.8782 134.834 67.7141 134.869 71.0227V74.5969H134.865C136.716 74.5578 138.552 74.925 140.247 75.675C142.431 76.6515 144.302 78.2141 145.646 80.1945C149.076 85.2179 148.287 91.9995 143.794 96.1045L143.812 96.1088ZM131.132 94.3783C133.175 90.5619 134.41 86.3705 134.761 82.0583C135.515 82.0075 136.273 82.1208 136.976 82.3903C138 82.7888 138.878 83.488 139.496 84.3981C140.824 86.3551 140.519 88.9879 138.785 90.5895C136.636 92.5426 133.984 93.8548 131.132 94.3783ZM125.953 75.9643C125.386 76.1752 124.793 76.3784 124.164 76.5776H124.16C117.277 78.5229 110.148 79.4526 102.996 79.3315C95.8435 79.4487 88.7148 78.5229 81.8318 76.5776C81.2029 76.3784 80.6052 76.1713 80.0427 75.9643V75.9604C82.6755 75.0034 85.3943 74.2885 88.156 73.8237C93.0583 72.9799 98.0232 72.5698 102.996 72.5932C107.969 72.5697 112.933 72.9838 117.836 73.8237C120.598 74.2924 123.313 75.0073 125.949 75.9643L125.953 75.9643ZM118.316 71.1518C122.101 71.7495 125.789 72.8549 129.277 74.4409C131.109 73.3784 132.14 72.23 132.14 71.0698C132.14 69.0776 129.09 67.1167 124.16 65.5581C117.277 63.6089 110.148 62.6831 102.996 62.8003C95.8436 62.6831 88.7149 63.6089 81.8319 65.5581C76.8983 67.1167 73.8514 69.0737 73.8514 71.0698C73.8514 72.23 74.8826 73.3784 76.7186 74.4409H76.7147C80.2069 72.855 83.8944 71.7495 87.6797 71.1518C92.7383 70.2768 97.8637 69.8471 102.996 69.8666C108.128 69.8471 113.258 70.2768 118.316 71.1518Z" fill="#E1EFEF"/>
</svg>
