<svg width="207" height="237" viewBox="0 0 207 237" fill="none" xmlns="http://www.w3.org/2000/svg">
<rect y="57.8579" width="206.346" height="178.649" rx="10" fill="#F7F7F7"/>
<path d="M0 10C0 4.47716 4.47715 0 10 0H196.346C201.868 0 206.346 4.47715 206.346 10V169.513H0V10Z" fill="#006E8D"/>
<path d="M39.4805 207.769V193.224H48.7986V195.432H42.1154V199.381H48.1594V201.59H42.1154V207.769H39.4805ZM51.0856 207.769V196.86H53.6566V207.769H51.0856ZM52.3782 195.312C51.971 195.312 51.6206 195.177 51.3271 194.907C51.0335 194.632 50.8867 194.303 50.8867 193.92C50.8867 193.531 51.0335 193.202 51.3271 192.932C51.6206 192.658 51.971 192.52 52.3782 192.52C52.7901 192.52 53.1405 192.658 53.4293 192.932C53.7229 193.202 53.8697 193.531 53.8697 193.92C53.8697 194.303 53.7229 194.632 53.4293 194.907C53.1405 195.177 52.7901 195.312 52.3782 195.312ZM58.8714 193.224V207.769H56.3004V193.224H58.8714ZM66.9627 196.86V198.849H60.6914V196.86H66.9627ZM62.2397 194.246H64.8107V204.488C64.8107 204.833 64.8628 205.099 64.967 205.283C65.0759 205.463 65.2179 205.586 65.3931 205.653C65.5683 205.719 65.7624 205.752 65.9755 205.752C66.1365 205.752 66.2833 205.74 66.4158 205.716C66.5531 205.693 66.6573 205.672 66.7283 205.653L67.1616 207.663C67.0243 207.71 66.8278 207.762 66.5721 207.819C66.3211 207.876 66.0134 207.909 65.6488 207.918C65.0049 207.937 64.4248 207.84 63.9087 207.627C63.3926 207.409 62.9831 207.073 62.68 206.618C62.3817 206.164 62.235 205.596 62.2397 204.914V194.246ZM69.1129 207.769V196.86H71.6058V198.678H71.7195C71.9183 198.048 72.2592 197.563 72.7422 197.222C73.2299 196.877 73.7862 196.704 74.4112 196.704C74.5533 196.704 74.7119 196.711 74.8871 196.725C75.067 196.734 75.2161 196.751 75.3345 196.775V199.14C75.2256 199.102 75.0528 199.069 74.816 199.04C74.584 199.007 74.3591 198.991 74.1413 198.991C73.6726 198.991 73.2512 199.092 72.8771 199.296C72.5078 199.495 72.2166 199.772 72.0035 200.127C71.7905 200.482 71.6839 200.892 71.6839 201.356V207.769H69.1129ZM81.3519 207.982C80.2866 207.982 79.3633 207.748 78.582 207.279C77.8008 206.81 77.1947 206.154 76.7638 205.312C76.3377 204.469 76.1246 203.484 76.1246 202.357C76.1246 201.23 76.3377 200.243 76.7638 199.395C77.1947 198.548 77.8008 197.89 78.582 197.421C79.3633 196.952 80.2866 196.718 81.3519 196.718C82.4173 196.718 83.3406 196.952 84.1218 197.421C84.9031 197.89 85.5067 198.548 85.9329 199.395C86.3638 200.243 86.5792 201.23 86.5792 202.357C86.5792 203.484 86.3638 204.469 85.9329 205.312C85.5067 206.154 84.9031 206.81 84.1218 207.279C83.3406 207.748 82.4173 207.982 81.3519 207.982ZM81.3661 205.922C81.9438 205.922 82.4267 205.764 82.815 205.447C83.2032 205.125 83.4921 204.694 83.6815 204.154C83.8756 203.614 83.9727 203.013 83.9727 202.35C83.9727 201.682 83.8756 201.079 83.6815 200.539C83.4921 199.994 83.2032 199.561 82.815 199.239C82.4267 198.917 81.9438 198.756 81.3661 198.756C80.7743 198.756 80.2818 198.917 79.8888 199.239C79.5006 199.561 79.2094 199.994 79.0153 200.539C78.8259 201.079 78.7312 201.682 78.7312 202.35C78.7312 203.013 78.8259 203.614 79.0153 204.154C79.2094 204.694 79.5006 205.125 79.8888 205.447C80.2818 205.764 80.7743 205.922 81.3661 205.922ZM98.4808 207.982C97.4155 207.982 96.4922 207.748 95.7109 207.279C94.9297 206.81 94.3236 206.154 93.8928 205.312C93.4666 204.469 93.2535 203.484 93.2535 202.357C93.2535 201.23 93.4666 200.243 93.8928 199.395C94.3236 198.548 94.9297 197.89 95.7109 197.421C96.4922 196.952 97.4155 196.718 98.4808 196.718C99.5462 196.718 100.469 196.952 101.251 197.421C102.032 197.89 102.636 198.548 103.062 199.395C103.493 200.243 103.708 201.23 103.708 202.357C103.708 203.484 103.493 204.469 103.062 205.312C102.636 206.154 102.032 206.81 101.251 207.279C100.469 207.748 99.5462 207.982 98.4808 207.982ZM98.495 205.922C99.0727 205.922 99.5556 205.764 99.9439 205.447C100.332 205.125 100.621 204.694 100.81 204.154C101.004 203.614 101.102 203.013 101.102 202.35C101.102 201.682 101.004 201.079 100.81 200.539C100.621 199.994 100.332 199.561 99.9439 199.239C99.5556 198.917 99.0727 198.756 98.495 198.756C97.9032 198.756 97.4107 198.917 97.0178 199.239C96.6295 199.561 96.3383 199.994 96.1442 200.539C95.9548 201.079 95.8601 201.682 95.8601 202.35C95.8601 203.013 95.9548 203.614 96.1442 204.154C96.3383 204.694 96.6295 205.125 97.0178 205.447C97.4107 205.764 97.9032 205.922 98.495 205.922ZM120.709 197.868C120.591 197.485 120.427 197.142 120.219 196.839C120.016 196.531 119.769 196.268 119.48 196.05C119.196 195.832 118.87 195.669 118.5 195.56C118.131 195.447 117.729 195.39 117.293 195.39C116.512 195.39 115.816 195.586 115.205 195.979C114.594 196.372 114.114 196.95 113.763 197.712C113.417 198.47 113.245 199.393 113.245 200.482C113.245 201.581 113.417 202.511 113.763 203.273C114.109 204.036 114.589 204.616 115.205 205.013C115.82 205.406 116.535 205.603 117.35 205.603C118.088 205.603 118.728 205.461 119.267 205.177C119.812 204.893 120.231 204.49 120.525 203.969C120.818 203.444 120.965 202.828 120.965 202.123L121.561 202.215H117.613V200.155H123.515V201.903C123.515 203.148 123.249 204.225 122.719 205.134C122.189 206.043 121.46 206.744 120.532 207.236C119.604 207.724 118.538 207.968 117.336 207.968C115.996 207.968 114.819 207.667 113.806 207.066C112.797 206.46 112.009 205.6 111.441 204.488C110.877 203.37 110.596 202.045 110.596 200.511C110.596 199.336 110.761 198.288 111.093 197.364C111.429 196.441 111.898 195.657 112.499 195.013C113.1 194.365 113.806 193.872 114.615 193.536C115.425 193.195 116.306 193.025 117.257 193.025C118.062 193.025 118.813 193.143 119.509 193.38C120.205 193.612 120.823 193.943 121.363 194.374C121.907 194.805 122.355 195.316 122.705 195.908C123.055 196.5 123.285 197.154 123.394 197.868H120.709ZM130.707 207.982C129.642 207.982 128.719 207.748 127.937 207.279C127.156 206.81 126.55 206.154 126.119 205.312C125.693 204.469 125.48 203.484 125.48 202.357C125.48 201.23 125.693 200.243 126.119 199.395C126.55 198.548 127.156 197.89 127.937 197.421C128.719 196.952 129.642 196.718 130.707 196.718C131.773 196.718 132.696 196.952 133.477 197.421C134.259 197.89 134.862 198.548 135.288 199.395C135.719 200.243 135.935 201.23 135.935 202.357C135.935 203.484 135.719 204.469 135.288 205.312C134.862 206.154 134.259 206.81 133.477 207.279C132.696 207.748 131.773 207.982 130.707 207.982ZM130.722 205.922C131.299 205.922 131.782 205.764 132.17 205.447C132.559 205.125 132.848 204.694 133.037 204.154C133.231 203.614 133.328 203.013 133.328 202.35C133.328 201.682 133.231 201.079 133.037 200.539C132.848 199.994 132.559 199.561 132.17 199.239C131.782 198.917 131.299 198.756 130.722 198.756C130.13 198.756 129.637 198.917 129.244 199.239C128.856 199.561 128.565 199.994 128.371 200.539C128.181 201.079 128.087 201.682 128.087 202.35C128.087 203.013 128.181 203.614 128.371 204.154C128.565 204.694 128.856 205.125 129.244 205.447C129.637 205.764 130.13 205.922 130.722 205.922ZM143.564 196.86V198.849H137.293V196.86H143.564ZM138.841 194.246H141.412V204.488C141.412 204.833 141.464 205.099 141.569 205.283C141.677 205.463 141.819 205.586 141.995 205.653C142.17 205.719 142.364 205.752 142.577 205.752C142.738 205.752 142.885 205.74 143.017 205.716C143.155 205.693 143.259 205.672 143.33 205.653L143.763 207.663C143.626 207.71 143.429 207.762 143.174 207.819C142.923 207.876 142.615 207.909 142.25 207.918C141.606 207.937 141.026 207.84 140.51 207.627C139.994 207.409 139.585 207.073 139.282 206.618C138.983 206.164 138.837 205.596 138.841 204.914V194.246ZM150.427 207.982C149.333 207.982 148.388 207.755 147.593 207.3C146.802 206.841 146.194 206.192 145.768 205.354C145.342 204.511 145.129 203.52 145.129 202.378C145.129 201.256 145.342 200.271 145.768 199.424C146.199 198.572 146.8 197.909 147.572 197.435C148.344 196.957 149.25 196.718 150.292 196.718C150.964 196.718 151.599 196.827 152.195 197.045C152.797 197.258 153.327 197.589 153.786 198.039C154.25 198.489 154.615 199.062 154.88 199.758C155.145 200.449 155.278 201.273 155.278 202.229V203.018H146.336V201.285H152.813C152.808 200.792 152.702 200.354 152.494 199.971C152.285 199.582 151.994 199.277 151.62 199.055C151.251 198.832 150.82 198.721 150.327 198.721C149.802 198.721 149.34 198.849 148.942 199.104C148.545 199.355 148.235 199.687 148.012 200.099C147.794 200.506 147.683 200.953 147.678 201.441V202.954C147.678 203.588 147.794 204.133 148.026 204.587C148.258 205.037 148.583 205.383 148.999 205.624C149.416 205.861 149.904 205.979 150.462 205.979C150.836 205.979 151.175 205.927 151.478 205.823C151.781 205.714 152.044 205.556 152.266 205.347C152.489 205.139 152.657 204.881 152.771 204.573L155.171 204.843C155.02 205.477 154.731 206.031 154.305 206.505C153.883 206.974 153.344 207.338 152.685 207.599C152.027 207.854 151.274 207.982 150.427 207.982ZM162.211 207.982C161.146 207.982 160.223 207.748 159.441 207.279C158.66 206.81 158.054 206.154 157.623 205.312C157.197 204.469 156.984 203.484 156.984 202.357C156.984 201.23 157.197 200.243 157.623 199.395C158.054 198.548 158.66 197.89 159.441 197.421C160.223 196.952 161.146 196.718 162.211 196.718C163.277 196.718 164.2 196.952 164.981 197.421C165.762 197.89 166.366 198.548 166.792 199.395C167.223 200.243 167.439 201.23 167.439 202.357C167.439 203.484 167.223 204.469 166.792 205.312C166.366 206.154 165.762 206.81 164.981 207.279C164.2 207.748 163.277 207.982 162.211 207.982ZM162.225 205.922C162.803 205.922 163.286 205.764 163.674 205.447C164.063 205.125 164.351 204.694 164.541 204.154C164.735 203.614 164.832 203.013 164.832 202.35C164.832 201.682 164.735 201.079 164.541 200.539C164.351 199.994 164.063 199.561 163.674 199.239C163.286 198.917 162.803 198.756 162.225 198.756C161.634 198.756 161.141 198.917 160.748 199.239C160.36 199.561 160.069 199.994 159.875 200.539C159.685 201.079 159.591 201.682 159.591 202.35C159.591 203.013 159.685 203.614 159.875 204.154C160.069 204.694 160.36 205.125 160.748 205.447C161.141 205.764 161.634 205.922 162.225 205.922Z" fill="#004255"/>
<path fill-rule="evenodd" clip-rule="evenodd" d="M119.754 92.482V99.2425C119.754 100.008 119.144 100.626 118.39 100.63H88.0974C87.3435 100.63 86.7302 100.008 86.7302 99.2425V92.482H80.488C80.1209 92.4939 79.7654 92.3512 79.4998 92.0935C79.2341 91.8318 79.0857 91.4749 79.0857 91.0982C79.0857 90.7255 79.2341 90.3687 79.4998 90.107C79.7654 89.8453 80.1209 89.7065 80.488 89.7145H91.379L72.578 57.4744C72.2968 57.0502 72.2695 56.503 72.5038 56.051C72.7421 55.599 73.203 55.3135 73.7108 55.3135H81.6327L76.4257 44.4332C76.3828 44.3341 76.3515 44.231 76.3281 44.1279C76.1679 43.3825 76.6288 42.649 77.3593 42.4824C94.3823 38.6284 112.027 38.6204 129.05 42.4665C129.476 42.5379 129.843 42.8036 130.042 43.1921C130.238 43.5768 130.246 44.0367 130.058 44.4293L124.851 55.3137H132.777C133.019 55.3137 133.261 55.3811 133.468 55.508C133.781 55.6943 134.003 55.9957 134.093 56.3525C134.183 56.7054 134.132 57.0821 133.949 57.3992L115.109 89.7144H126C126.367 89.7064 126.722 89.8452 126.988 90.1069C127.25 90.3686 127.398 90.7255 127.398 91.0982C127.398 91.4748 127.25 91.8317 126.988 92.0934C126.722 92.3511 126.367 92.4939 126 92.482L119.754 92.482ZM117.027 97.8626V92.482H89.4611V97.8626H117.027ZM115.465 106.498L112.613 111.776C112.125 112.767 112.179 113.945 112.758 114.888C113.34 115.828 114.359 116.395 115.449 116.383C116.543 116.367 117.551 115.781 118.109 114.825C118.668 113.873 118.699 112.692 118.187 111.712L118.183 111.705L115.469 106.498L115.465 106.498ZM110.254 110.396L114.293 102.918C114.535 102.47 114.996 102.196 115.5 102.2C116 102.204 116.457 102.49 116.691 102.938L120.59 110.412H120.594C121.554 112.248 121.504 114.46 120.457 116.248C119.41 118.033 117.515 119.135 115.469 119.151C113.422 119.171 111.512 118.1 110.437 116.328C109.363 114.559 109.277 112.347 110.211 110.499L110.262 110.392L110.254 110.396ZM90.9807 106.494L88.1291 111.772C87.6409 112.763 87.6956 113.945 88.2737 114.884C88.8518 115.824 89.8753 116.391 90.9651 116.379C92.0589 116.367 93.0667 115.777 93.6253 114.825C94.1839 113.869 94.2112 112.692 93.7034 111.709L93.6995 111.701L90.9847 106.494L90.9807 106.494ZM85.7698 110.392L89.8089 102.918C90.0511 102.47 90.5121 102.196 91.0159 102.2C91.5159 102.204 91.9769 102.49 92.2073 102.938L96.1057 110.412H96.1097C97.0706 112.248 97.0198 114.46 95.9729 116.248C94.926 118.037 93.0354 119.139 90.9846 119.155C88.9377 119.171 87.0276 118.1 85.9534 116.332C84.8753 114.559 84.7893 112.347 85.723 110.499L85.7737 110.392L85.7698 110.392ZM103.297 111.554L98.5546 120.396C98.0039 121.466 97.8359 122.699 98.0859 123.885C98.3398 125.102 98.9921 126.197 99.9414 126.986C101.867 128.576 104.625 128.576 106.547 126.986C107.496 126.197 108.148 125.102 108.402 123.881C108.652 122.695 108.484 121.454 107.926 120.38L103.305 111.55L103.297 111.554ZM96.1718 119.067L96.1523 119.107H96.1484C95.3047 120.745 95.0468 122.632 95.4257 124.44C95.8047 126.272 96.789 127.921 98.2148 129.107C101.137 131.549 105.352 131.549 108.274 129.107C109.7 127.921 110.684 126.272 111.063 124.44C111.442 122.62 111.18 120.725 110.321 119.079L104.512 107.989C104.27 107.521 103.782 107.236 103.262 107.255C102.739 107.275 102.274 107.592 102.063 108.076L96.1718 119.067ZM115.274 42.9823L112.004 55.3131H121.829L126.852 44.8094H126.856C123.024 44.0005 119.157 43.3939 115.266 42.9815L115.274 42.9823ZM109.184 55.3131L112.516 42.7357C109.43 42.4819 106.34 42.355 103.243 42.355C95.309 42.355 87.3986 43.1758 79.6336 44.8094L84.657 55.3131H109.184ZM111.942 89.7142L130.387 58.0812H76.0978L94.5428 89.7142H111.942Z" fill="#F7F7F7"/>
</svg>
