<svg width="207" height="237" viewBox="0 0 207 237" fill="none" xmlns="http://www.w3.org/2000/svg">
<rect y="57.8579" width="206.346" height="178.649" rx="10" fill="#F7F7F7"/>
<path d="M0 10C0 4.47716 4.47715 0 10 0H196.346C201.868 0 206.346 4.47715 206.346 10V169.513H0V10Z" fill="#006E8D"/>
<path d="M41.5996 207.769V193.224H50.9178V195.432H44.2345V199.381H50.2786V201.59H44.2345V207.769H41.5996ZM53.0485 207.769V196.86H55.5414V198.678H55.655C55.8539 198.048 56.1948 197.563 56.6777 197.222C57.1654 196.877 57.7218 196.704 58.3468 196.704C58.4888 196.704 58.6474 196.711 58.8226 196.725C59.0025 196.734 59.1517 196.751 59.2701 196.775V199.14C59.1612 199.102 58.9883 199.069 58.7516 199.04C58.5196 199.007 58.2947 198.991 58.0769 198.991C57.6081 198.991 57.1867 199.092 56.8127 199.296C56.4434 199.495 56.1522 199.772 55.9391 200.127C55.726 200.482 55.6195 200.892 55.6195 201.356V207.769H53.0485ZM65.3585 207.982C64.2647 207.982 63.3201 207.755 62.5247 207.3C61.734 206.841 61.1255 206.192 60.6994 205.354C60.2733 204.511 60.0602 203.52 60.0602 202.378C60.0602 201.256 60.2733 200.271 60.6994 199.424C61.1303 198.572 61.7316 197.909 62.5034 197.435C63.2752 196.957 64.1819 196.718 65.2235 196.718C65.8959 196.718 66.5304 196.827 67.127 197.045C67.7283 197.258 68.2586 197.589 68.7179 198.039C69.1819 198.489 69.5465 199.062 69.8116 199.758C70.0768 200.449 70.2093 201.273 70.2093 202.229V203.018H61.2676V201.285H67.7448C67.7401 200.792 67.6336 200.354 67.4252 199.971C67.2169 199.582 66.9257 199.277 66.5517 199.055C66.1823 198.832 65.7515 198.721 65.2591 198.721C64.7335 198.721 64.2718 198.849 63.8741 199.104C63.4764 199.355 63.1662 199.687 62.9437 200.099C62.7259 200.506 62.6146 200.953 62.6099 201.441V202.954C62.6099 203.588 62.7259 204.133 62.9579 204.587C63.1899 205.037 63.5143 205.383 63.9309 205.624C64.3476 205.861 64.8353 205.979 65.394 205.979C65.768 205.979 66.1066 205.927 66.4096 205.823C66.7127 205.714 66.9754 205.556 67.198 205.347C67.4205 205.139 67.5886 204.881 67.7022 204.573L70.1028 204.843C69.9513 205.477 69.6625 206.031 69.2363 206.505C68.8149 206.974 68.2752 207.338 67.617 207.599C66.9589 207.854 66.206 207.982 65.3585 207.982ZM74.9554 201.377V207.769H72.3844V196.86H74.8418V198.714H74.9696C75.2206 198.103 75.6207 197.618 76.1699 197.258C76.7239 196.898 77.4081 196.718 78.2225 196.718C78.9753 196.718 79.6311 196.879 80.1898 197.201C80.7533 197.523 81.1889 197.989 81.4966 198.6C81.8091 199.211 81.963 199.952 81.9583 200.823V207.769H79.3872V201.221C79.3872 200.492 79.1979 199.921 78.8191 199.509C78.445 199.097 77.9265 198.891 77.2637 198.891C76.8139 198.891 76.4138 198.991 76.0634 199.189C75.7177 199.384 75.4455 199.665 75.2466 200.035C75.0525 200.404 74.9554 200.851 74.9554 201.377ZM89.3304 207.982C88.2414 207.982 87.3063 207.743 86.525 207.265C85.7485 206.787 85.1496 206.126 84.7282 205.283C84.3115 204.436 84.1032 203.46 84.1032 202.357C84.1032 201.249 84.3162 200.271 84.7424 199.424C85.1685 198.572 85.7698 197.909 86.5463 197.435C87.3276 196.957 88.2509 196.718 89.3162 196.718C90.2016 196.718 90.9853 196.881 91.6671 197.208C92.3536 197.53 92.9005 197.987 93.3077 198.579C93.7149 199.166 93.9469 199.852 94.0037 200.638H91.5463C91.4469 200.113 91.2102 199.675 90.8361 199.324C90.4668 198.969 89.972 198.792 89.3517 198.792C88.8262 198.792 88.3645 198.934 87.9668 199.218C87.5691 199.497 87.2589 199.9 87.0364 200.425C86.8186 200.951 86.7097 201.581 86.7097 202.314C86.7097 203.058 86.8186 203.697 87.0364 204.232C87.2542 204.762 87.5596 205.172 87.9526 205.461C88.3503 205.745 88.8167 205.887 89.3517 205.887C89.7305 205.887 90.0691 205.816 90.3674 205.674C90.6704 205.527 90.9237 205.316 91.1273 205.042C91.3309 204.767 91.4706 204.433 91.5463 204.04H94.0037C93.9422 204.812 93.7149 205.496 93.3219 206.093C92.9289 206.685 92.3939 207.149 91.7168 207.485C91.0397 207.816 90.2443 207.982 89.3304 207.982ZM98.6859 201.377V207.769H96.1149V193.224H98.6291V198.714H98.7569C99.0126 198.098 99.408 197.613 99.943 197.258C100.483 196.898 101.169 196.718 102.003 196.718C102.76 196.718 103.421 196.877 103.984 197.194C104.548 197.511 104.983 197.975 105.291 198.586C105.604 199.197 105.76 199.942 105.76 200.823V207.769H103.189V201.221C103.189 200.487 102.999 199.916 102.621 199.509C102.247 199.097 101.721 198.891 101.044 198.891C100.589 198.891 100.182 198.991 99.8223 199.189C99.4671 199.384 99.1878 199.665 98.9842 200.035C98.7853 200.404 98.6859 200.851 98.6859 201.377ZM113.455 207.769V193.224H118.91C120.027 193.224 120.965 193.432 121.722 193.849C122.484 194.265 123.06 194.838 123.448 195.567C123.841 196.292 124.037 197.116 124.037 198.039C124.037 198.972 123.841 199.8 123.448 200.525C123.055 201.249 122.475 201.82 121.708 202.236C120.941 202.648 119.996 202.854 118.874 202.854H115.259V200.688H118.519C119.172 200.688 119.707 200.574 120.124 200.347C120.541 200.12 120.849 199.807 121.047 199.41C121.251 199.012 121.353 198.555 121.353 198.039C121.353 197.523 121.251 197.068 121.047 196.675C120.849 196.282 120.538 195.977 120.117 195.759C119.7 195.537 119.163 195.425 118.505 195.425H116.09V207.769H113.455ZM126.213 207.769V196.86H128.705V198.678H128.819C129.018 198.048 129.359 197.563 129.842 197.222C130.329 196.877 130.886 196.704 131.511 196.704C131.653 196.704 131.811 196.711 131.987 196.725C132.167 196.734 132.316 196.751 132.434 196.775V199.14C132.325 199.102 132.152 199.069 131.916 199.04C131.684 199.007 131.459 198.991 131.241 198.991C130.772 198.991 130.351 199.092 129.977 199.296C129.607 199.495 129.316 199.772 129.103 200.127C128.89 200.482 128.784 200.892 128.784 201.356V207.769H126.213ZM138.523 207.982C137.429 207.982 136.484 207.755 135.689 207.3C134.898 206.841 134.29 206.192 133.863 205.354C133.437 204.511 133.224 203.52 133.224 202.378C133.224 201.256 133.437 200.271 133.863 199.424C134.294 198.572 134.896 197.909 135.667 197.435C136.439 196.957 137.346 196.718 138.388 196.718C139.06 196.718 139.694 196.827 140.291 197.045C140.892 197.258 141.423 197.589 141.882 198.039C142.346 198.489 142.711 199.062 142.976 199.758C143.241 200.449 143.373 201.273 143.373 202.229V203.018H134.432V201.285H140.909C140.904 200.792 140.798 200.354 140.589 199.971C140.381 199.582 140.09 199.277 139.716 199.055C139.346 198.832 138.916 198.721 138.423 198.721C137.898 198.721 137.436 198.849 137.038 199.104C136.64 199.355 136.33 199.687 136.108 200.099C135.89 200.506 135.779 200.953 135.774 201.441V202.954C135.774 203.588 135.89 204.133 136.122 204.587C136.354 205.037 136.678 205.383 137.095 205.624C137.512 205.861 137.999 205.979 138.558 205.979C138.932 205.979 139.271 205.927 139.574 205.823C139.877 205.714 140.139 205.556 140.362 205.347C140.585 205.139 140.753 204.881 140.866 204.573L143.267 204.843C143.115 205.477 142.827 206.031 142.4 206.505C141.979 206.974 141.439 207.338 140.781 207.599C140.123 207.854 139.37 207.982 138.523 207.982ZM154.171 199.743L151.827 199.999C151.761 199.762 151.645 199.54 151.479 199.332C151.318 199.123 151.1 198.955 150.825 198.827C150.551 198.699 150.215 198.636 149.817 198.636C149.282 198.636 148.832 198.752 148.468 198.984C148.108 199.216 147.93 199.516 147.935 199.886C147.93 200.203 148.046 200.461 148.283 200.66C148.524 200.859 148.922 201.022 149.476 201.15L151.337 201.547C152.369 201.77 153.136 202.123 153.638 202.606C154.145 203.089 154.4 203.721 154.405 204.502C154.4 205.189 154.199 205.795 153.801 206.32C153.408 206.841 152.861 207.248 152.161 207.542C151.46 207.835 150.655 207.982 149.746 207.982C148.411 207.982 147.336 207.703 146.521 207.144C145.707 206.581 145.222 205.797 145.066 204.793L147.573 204.552C147.686 205.044 147.928 205.416 148.297 205.667C148.666 205.918 149.147 206.043 149.739 206.043C150.35 206.043 150.84 205.918 151.209 205.667C151.583 205.416 151.77 205.106 151.77 204.736C151.77 204.424 151.649 204.166 151.408 203.962C151.171 203.759 150.802 203.602 150.3 203.493L148.439 203.103C147.393 202.885 146.619 202.518 146.117 202.002C145.615 201.481 145.366 200.823 145.371 200.028C145.366 199.355 145.548 198.773 145.918 198.28C146.292 197.783 146.81 197.4 147.473 197.13C148.141 196.855 148.91 196.718 149.781 196.718C151.06 196.718 152.066 196.99 152.8 197.535C153.539 198.079 153.995 198.815 154.171 199.743ZM165.147 199.743L162.803 199.999C162.737 199.762 162.621 199.54 162.455 199.332C162.294 199.123 162.077 198.955 161.802 198.827C161.527 198.699 161.191 198.636 160.793 198.636C160.258 198.636 159.809 198.752 159.444 198.984C159.084 199.216 158.907 199.516 158.911 199.886C158.907 200.203 159.023 200.461 159.259 200.66C159.501 200.859 159.899 201.022 160.453 201.15L162.313 201.547C163.346 201.77 164.113 202.123 164.615 202.606C165.121 203.089 165.377 203.721 165.382 204.502C165.377 205.189 165.176 205.795 164.778 206.32C164.385 206.841 163.838 207.248 163.137 207.542C162.436 207.835 161.632 207.982 160.722 207.982C159.387 207.982 158.312 207.703 157.498 207.144C156.684 206.581 156.198 205.797 156.042 204.793L158.549 204.552C158.663 205.044 158.904 205.416 159.274 205.667C159.643 205.918 160.124 206.043 160.715 206.043C161.326 206.043 161.816 205.918 162.186 205.667C162.56 205.416 162.747 205.106 162.747 204.736C162.747 204.424 162.626 204.166 162.384 203.962C162.148 203.759 161.778 203.602 161.276 203.493L159.416 203.103C158.369 202.885 157.595 202.518 157.093 202.002C156.591 201.481 156.343 200.823 156.347 200.028C156.343 199.355 156.525 198.773 156.894 198.28C157.268 197.783 157.787 197.4 158.45 197.13C159.117 196.855 159.887 196.718 160.758 196.718C162.036 196.718 163.043 196.99 163.776 197.535C164.515 198.079 164.972 198.815 165.147 199.743Z" fill="#004255"/>
<path fill-rule="evenodd" clip-rule="evenodd" d="M78.3223 122.765H78.2911C77.8223 122.765 77.3731 122.952 77.0411 123.289C76.7091 123.622 76.5255 124.078 76.5255 124.558H76.5216V125.517H76.5255V125.513C76.5216 125.973 76.7052 126.409 77.0255 126.73C77.3653 127.063 77.8224 127.246 78.295 127.238H120.236C120.705 127.242 121.154 127.055 121.486 126.718C121.818 126.381 122.006 125.925 122.006 125.45V124.554V124.557C122.009 124.078 121.83 123.614 121.506 123.269C121.189 122.944 120.756 122.757 120.306 122.761L78.3223 122.765ZM75.1817 121.401C75.6974 120.874 76.334 120.485 77.0372 120.271V70.3318C75.7872 69.8837 74.6505 69.1502 73.7169 68.1946C72.0411 66.4698 71.1036 64.1384 71.1153 61.7157V61.5889C71.1153 61.232 71.256 60.895 71.5021 60.6412C71.7521 60.3914 72.088 60.2487 72.4357 60.2487H77.0373V60.1813C77.0607 55.0744 81.135 50.9427 86.1662 50.9189H94.5451V47.7707H94.0372C92.2091 47.7667 90.5567 46.6485 89.8575 44.9277C89.1544 43.2109 89.545 41.2323 90.838 39.9199C91.6857 39.0555 92.838 38.5718 94.0372 38.5718H104.494C105.654 38.5718 106.772 39.0278 107.611 39.8406L107.697 39.9199C109.455 41.7121 109.467 44.6105 107.725 46.4225C106.893 47.2869 105.748 47.7746 104.557 47.7706H104.111V50.9228H112.557C117.561 50.9228 121.619 55.0425 121.619 60.1257H121.611V63.3254H122.064C128.764 63.3532 134.186 68.8566 134.216 75.6532V103.274C134.22 104.55 133.717 105.776 132.814 106.672C130.935 108.527 127.939 108.527 126.056 106.672C125.158 105.776 124.65 104.551 124.654 103.274V75.7243C124.662 75.0066 124.388 74.3167 123.896 73.8012C123.416 73.3056 122.756 73.032 122.068 73.036H121.619V120.296C122.287 120.51 122.892 120.89 123.381 121.402C124.193 122.246 124.646 123.38 124.642 124.562V125.462C124.642 126.648 124.181 127.786 123.353 128.622C122.525 129.459 121.404 129.931 120.236 129.927H78.2911C77.1309 129.931 76.0099 129.471 75.1817 128.646C74.3496 127.825 73.8848 126.695 73.8887 125.518V124.558H73.8809V124.562C73.8809 123.373 74.3496 122.239 75.1778 121.402L75.1817 121.401ZM118.991 120.089L118.987 102.051H79.6748V120.089H118.991ZM118.991 99.3757L118.987 71.8151L118.979 71.6922L118.987 71.5693V70.8595H100.589V93.3652H113.878C114.604 93.3692 115.194 93.9639 115.198 94.7054V99.3762L118.991 99.3757ZM118.991 68.1792L118.987 64.7811L118.979 64.6582L118.987 64.5353V62.9334H73.8618C74.3814 65.9904 77.0063 68.2148 80.061 68.1832L118.991 68.1792ZM118.991 60.2531V60.1222H118.987L118.983 60.1182C118.983 56.514 116.104 53.5957 112.557 53.5957H102.913L102.792 53.6037L102.67 53.5957H95.8657L95.7486 53.5878H86.1666V53.5957C82.5924 53.6195 79.6978 56.5537 79.6744 60.1817V60.2491L118.991 60.2531ZM121.62 65.9984V70.3561L122.065 70.3521C123.459 70.3481 124.792 70.9151 125.768 71.9262C126.745 72.9373 127.291 74.2973 127.288 75.7168V103.273C127.284 103.832 127.502 104.372 127.897 104.768C128.756 105.593 130.104 105.593 130.967 104.768C131.362 104.372 131.581 103.833 131.577 103.273V75.6529C131.553 70.3318 127.311 66.0218 122.065 65.998L121.62 65.9984ZM97.1816 50.9229H101.471L101.475 47.7707H97.1856V50.9229H97.1816ZM97.9434 93.3642L97.9473 70.8544H80.0563C79.9274 70.8544 79.8024 70.8544 79.6735 70.8465V99.3714H83.4587V94.7045C83.4587 93.9631 84.0485 93.3644 84.779 93.3644L97.9434 93.3642ZM112.556 99.3713V96.0446H86.0994V99.3713H112.556ZM94.0364 41.2475C93.5364 41.2475 93.052 41.4457 92.6966 41.8065C92.1575 42.3537 91.9934 43.1824 92.2864 43.9001C92.5794 44.6177 93.2708 45.0857 94.0364 45.0857H104.556C105.041 45.0896 105.51 44.8953 105.849 44.5424C106.201 44.1737 106.392 43.6781 106.385 43.1665C106.385 42.655 106.185 42.1673 105.83 41.8066L105.779 41.7511C105.428 41.422 104.971 41.2396 104.494 41.2435L94.0364 41.2475Z" fill="#F7F7F7"/>
</svg>
