<svg width="207" height="237" viewBox="0 0 207 237" fill="none" xmlns="http://www.w3.org/2000/svg">
<rect y="57.8579" width="206.346" height="178.649" rx="10" fill="#F7F7F7"/>
<path d="M0 10C0 4.47716 4.47715 0 10 0H196.346C201.868 0 206.346 4.47715 206.346 10V169.513H0V10Z" fill="#006E8D"/>
<path d="M72.1642 193.224V207.769H69.5293V193.224H72.1642ZM80.3514 196.86V198.849H74.0801V196.86H80.3514ZM75.6284 194.246H78.1994V204.488C78.1994 204.833 78.2515 205.099 78.3556 205.283C78.4645 205.463 78.6066 205.586 78.7818 205.653C78.957 205.719 79.1511 205.752 79.3642 205.752C79.5252 205.752 79.6719 205.74 79.8045 205.716C79.9418 205.693 80.046 205.672 80.117 205.653L80.5502 207.663C80.4129 207.71 80.2164 207.762 79.9608 207.819C79.7098 207.876 79.402 207.909 79.0375 207.918C78.3935 207.937 77.8135 207.84 77.2974 207.627C76.7813 207.409 76.3717 207.073 76.0687 206.618C75.7704 206.164 75.6236 205.596 75.6284 204.914V194.246ZM85.6408 207.989C84.9495 207.989 84.3269 207.866 83.7729 207.62C83.2237 207.369 82.7881 207 82.4661 206.512C82.1488 206.024 81.9902 205.423 81.9902 204.708C81.9902 204.092 82.1039 203.583 82.3311 203.181C82.5584 202.779 82.8685 202.457 83.2615 202.215C83.6545 201.974 84.0972 201.791 84.5897 201.668C85.0868 201.54 85.6006 201.448 86.1309 201.391C86.7701 201.325 87.2885 201.266 87.6863 201.214C88.084 201.157 88.3728 201.072 88.5527 200.958C88.7374 200.84 88.8297 200.657 88.8297 200.411V200.368C88.8297 199.833 88.6711 199.419 88.3539 199.126C88.0366 198.832 87.5797 198.685 86.9831 198.685C86.3534 198.685 85.8539 198.823 85.4845 199.097C85.12 199.372 84.8738 199.696 84.7459 200.07L82.3453 199.729C82.5347 199.066 82.8472 198.512 83.2828 198.067C83.7185 197.618 84.2511 197.281 84.8809 197.059C85.5106 196.832 86.2066 196.718 86.9689 196.718C87.4945 196.718 88.0177 196.779 88.5385 196.903C89.0594 197.026 89.5352 197.229 89.9661 197.513C90.397 197.793 90.7426 198.174 91.003 198.657C91.2682 199.14 91.4007 199.743 91.4007 200.468V207.769H88.9292V206.27H88.8439C88.6877 206.573 88.4675 206.858 88.1834 207.123C87.9041 207.383 87.5513 207.594 87.1252 207.755C86.7038 207.911 86.209 207.989 85.6408 207.989ZM86.3084 206.1C86.8245 206.1 87.272 205.998 87.6507 205.795C88.0295 205.586 88.3207 205.312 88.5243 204.971C88.7327 204.63 88.8368 204.258 88.8368 203.856V202.57C88.7563 202.636 88.619 202.698 88.4249 202.755C88.2355 202.812 88.0224 202.861 87.7857 202.904C87.5489 202.947 87.3146 202.984 87.0826 203.018C86.8506 203.051 86.6493 203.079 86.4789 203.103C86.0953 203.155 85.7521 203.24 85.449 203.359C85.146 203.477 84.9069 203.643 84.7317 203.856C84.5565 204.064 84.4689 204.334 84.4689 204.665C84.4689 205.139 84.6417 205.496 84.9874 205.738C85.333 205.979 85.7734 206.1 86.3084 206.1ZM96.557 193.224V207.769H93.986V193.224H96.557ZM99.2008 207.769V196.86H101.772V207.769H99.2008ZM100.493 195.312C100.086 195.312 99.7359 195.177 99.4423 194.907C99.1487 194.632 99.002 194.303 99.002 193.92C99.002 193.531 99.1487 193.202 99.4423 192.932C99.7359 192.658 100.086 192.52 100.493 192.52C100.905 192.52 101.256 192.658 101.545 192.932C101.838 193.202 101.985 193.531 101.985 193.92C101.985 194.303 101.838 194.632 101.545 194.907C101.256 195.177 100.905 195.312 100.493 195.312ZM107.555 207.989C106.864 207.989 106.241 207.866 105.687 207.62C105.138 207.369 104.702 207 104.38 206.512C104.063 206.024 103.904 205.423 103.904 204.708C103.904 204.092 104.018 203.583 104.245 203.181C104.472 202.779 104.783 202.457 105.176 202.215C105.569 201.974 106.011 201.791 106.504 201.668C107.001 201.54 107.515 201.448 108.045 201.391C108.684 201.325 109.203 201.266 109.6 201.214C109.998 201.157 110.287 201.072 110.467 200.958C110.651 200.84 110.744 200.657 110.744 200.411V200.368C110.744 199.833 110.585 199.419 110.268 199.126C109.951 198.832 109.494 198.685 108.897 198.685C108.267 198.685 107.768 198.823 107.399 199.097C107.034 199.372 106.788 199.696 106.66 200.07L104.259 199.729C104.449 199.066 104.761 198.512 105.197 198.067C105.633 197.618 106.165 197.281 106.795 197.059C107.425 196.832 108.121 196.718 108.883 196.718C109.409 196.718 109.932 196.779 110.453 196.903C110.973 197.026 111.449 197.229 111.88 197.513C112.311 197.793 112.657 198.174 112.917 198.657C113.182 199.14 113.315 199.743 113.315 200.468V207.769H110.843V206.27H110.758C110.602 206.573 110.382 206.858 110.097 207.123C109.818 207.383 109.465 207.594 109.039 207.755C108.618 207.911 108.123 207.989 107.555 207.989ZM108.222 206.1C108.739 206.1 109.186 205.998 109.565 205.795C109.944 205.586 110.235 205.312 110.438 204.971C110.647 204.63 110.751 204.258 110.751 203.856V202.57C110.67 202.636 110.533 202.698 110.339 202.755C110.15 202.812 109.936 202.861 109.7 202.904C109.463 202.947 109.229 202.984 108.997 203.018C108.765 203.051 108.563 203.079 108.393 203.103C108.009 203.155 107.666 203.24 107.363 203.359C107.06 203.477 106.821 203.643 106.646 203.856C106.471 204.064 106.383 204.334 106.383 204.665C106.383 205.139 106.556 205.496 106.901 205.738C107.247 205.979 107.687 206.1 108.222 206.1ZM118.471 201.377V207.769H115.9V196.86H118.357V198.714H118.485C118.736 198.103 119.136 197.618 119.686 197.258C120.24 196.898 120.924 196.718 121.738 196.718C122.491 196.718 123.147 196.879 123.705 197.201C124.269 197.523 124.704 197.989 125.012 198.6C125.325 199.211 125.479 199.952 125.474 200.823V207.769H122.903V201.221C122.903 200.492 122.713 199.921 122.335 199.509C121.961 199.097 121.442 198.891 120.779 198.891C120.329 198.891 119.929 198.991 119.579 199.189C119.233 199.384 118.961 199.665 118.762 200.035C118.568 200.404 118.471 200.851 118.471 201.377ZM131.227 207.989C130.535 207.989 129.913 207.866 129.359 207.62C128.81 207.369 128.374 207 128.052 206.512C127.735 206.024 127.576 205.423 127.576 204.708C127.576 204.092 127.69 203.583 127.917 203.181C128.144 202.779 128.454 202.457 128.847 202.215C129.24 201.974 129.683 201.791 130.176 201.668C130.673 201.54 131.186 201.448 131.717 201.391C132.356 201.325 132.874 201.266 133.272 201.214C133.67 201.157 133.959 201.072 134.139 200.958C134.323 200.84 134.416 200.657 134.416 200.411V200.368C134.416 199.833 134.257 199.419 133.94 199.126C133.623 198.832 133.166 198.685 132.569 198.685C131.939 198.685 131.44 198.823 131.07 199.097C130.706 199.372 130.46 199.696 130.332 200.07L127.931 199.729C128.121 199.066 128.433 198.512 128.869 198.067C129.304 197.618 129.837 197.281 130.467 197.059C131.097 196.832 131.793 196.718 132.555 196.718C133.08 196.718 133.604 196.779 134.124 196.903C134.645 197.026 135.121 197.229 135.552 197.513C135.983 197.793 136.329 198.174 136.589 198.657C136.854 199.14 136.987 199.743 136.987 200.468V207.769H134.515V206.27H134.43C134.274 206.573 134.053 206.858 133.769 207.123C133.49 207.383 133.137 207.594 132.711 207.755C132.29 207.911 131.795 207.989 131.227 207.989ZM131.894 206.1C132.41 206.1 132.858 205.998 133.237 205.795C133.615 205.586 133.907 205.312 134.11 204.971C134.319 204.63 134.423 204.258 134.423 203.856V202.57C134.342 202.636 134.205 202.698 134.011 202.755C133.821 202.812 133.608 202.861 133.372 202.904C133.135 202.947 132.901 202.984 132.668 203.018C132.436 203.051 132.235 203.079 132.065 203.103C131.681 203.155 131.338 203.24 131.035 203.359C130.732 203.477 130.493 203.643 130.318 203.856C130.142 204.064 130.055 204.334 130.055 204.665C130.055 205.139 130.228 205.496 130.573 205.738C130.919 205.979 131.359 206.1 131.894 206.1Z" fill="#004255"/>
<path fill-rule="evenodd" clip-rule="evenodd" d="M81.1798 88.1066C80.8595 87.8806 80.6525 87.5237 80.6056 87.1312C80.5431 86.584 80.4689 86.0448 80.3752 85.5055L80.2736 84.9741H80.2775C79.4923 80.8307 77.797 76.9211 75.3244 73.5274C72.4182 69.5425 68.5314 66.4023 64.0474 64.4277C63.5162 64.1898 63.188 63.6387 63.2349 63.0478C63.3794 61.2557 64.2037 59.5904 65.5279 58.3969C66.8677 57.1955 68.5943 56.5373 70.3834 56.5452H76.485L94.805 47.6199L92.6527 40.4829C92.4808 40.0547 92.5316 39.567 92.7816 39.1864C93.0355 38.8017 93.4613 38.5718 93.9144 38.5718H105.336C105.766 38.5718 106.172 38.778 106.43 39.1308C106.684 39.4798 106.762 39.9318 106.637 40.3521L104.45 47.6279L122.665 56.5453H129.559H129.555C129.813 56.5453 130.067 56.6167 130.286 56.7595L142.224 63.6864H142.228C142.65 63.9322 142.911 64.3882 142.911 64.8838V70.7996C142.911 71.0375 142.853 71.2715 142.736 71.4777L130.232 98.2699C129.423 100.015 127.415 100.819 125.653 100.102C123.888 99.3841 122.982 97.3976 123.583 95.5698V95.5579L131.794 70.9632L128.966 69.286H121.689L118.439 87.2829H118.443C118.321 87.9371 117.759 88.4129 117.103 88.4129H114.357V98.0559H117.103C117.759 98.0559 118.322 98.5317 118.443 99.186L123.677 128.178C123.786 128.594 123.7 129.042 123.443 129.383C123.185 129.724 122.782 129.926 122.361 129.926H76.7826C76.3802 129.926 75.9974 129.744 75.7396 129.431C75.4818 129.118 75.3763 128.705 75.4427 128.301L80.6771 99.3007C80.7435 98.591 81.3333 98.0517 82.0365 98.0557H84.7865V88.4127H82.0365C81.724 88.4127 81.4232 88.3057 81.181 88.1074L81.1798 88.1066ZM92.3989 85.6443L87.6411 59.3129H78.4106L82.8911 84.1339C82.9731 84.5383 83.0473 84.9507 83.1137 85.363L83.1645 85.6485L92.3989 85.6443ZM90.4066 59.3129L95.1606 85.6483H103.973L108.727 59.3129H90.4066ZM111.497 59.3129L106.743 85.6483H115.973L119.172 67.9479V67.9003H119.176C119.176 67.7139 119.212 67.5355 119.282 67.365L120.735 59.312L111.497 59.3129ZM77.5127 71.8903C77.7002 72.1441 77.8798 72.4018 78.0595 72.6635L75.6493 59.3176L70.3837 59.3137C69.2626 59.3057 68.1806 59.7181 67.3407 60.4714C66.7782 60.979 66.3603 61.6332 66.1337 62.3667C70.6376 64.5514 74.5439 67.8226 77.5127 71.8947L77.5127 71.8903ZM97.2747 46.4106L99.0364 45.5501V45.5541C99.4074 45.3717 99.841 45.3717 100.212 45.5541L101.97 46.4145L103.497 41.3393H95.7473L97.2746 46.4145L97.2747 46.4106ZM99.6185 48.3256L82.7635 56.5452H116.404L99.6235 48.3296L99.6185 48.3256ZM129.196 59.3125H123.497L122.196 66.521H129.333V66.5171C129.571 66.5171 129.81 66.5845 130.017 66.7034L134.091 69.1181C134.677 69.4353 134.946 70.1371 134.735 70.7794L126.161 96.445C126.095 96.6551 126.11 96.8851 126.204 97.0873C126.294 97.2895 126.462 97.4481 126.665 97.5314C127.091 97.7019 127.575 97.5116 127.771 97.0913L140.189 70.498V65.6884L129.201 59.3127L129.196 59.3125ZM95.1615 100.826L90.4075 127.157H108.732L103.974 100.822L95.1615 100.826ZM87.642 127.157L92.3958 100.822H83.1693L78.4154 127.157H87.642ZM106.744 100.822L111.498 127.157H120.728L115.974 100.822H106.744ZM111.631 98.0544V88.4114H87.5137V98.0544H111.631Z" fill="#F7F7F7"/>
</svg>
